<svg xmlns="http://www.w3.org/2000/svg" viewBox="0 0 720 200" role="img" aria-labelledby="title desc">
  <title id="title">AgentsOX primary logo</title>
  <desc id="desc">AgentsOX wordmark paired with the same ox-agent mark used in the PNG concept.</desc>
  <defs>
    <linearGradient id="mark-fill" x1="0%" y1="0%" x2="100%" y2="100%">
      <stop offset="0" stop-color="#22D3EE"/>
      <stop offset="1" stop-color="#3B82F6"/>
    </linearGradient>
    <linearGradient id="word-accent" x1="0" y1="0" x2="130" y2="0" gradientUnits="userSpaceOnUse">
      <stop offset="0" stop-color="#22D3EE"/>
      <stop offset="1" stop-color="#3B82F6"/>
    </linearGradient>
    <filter id="mark-glow" x="-18%" y="-18%" width="136%" height="136%">
      <feGaussianBlur stdDeviation="1.9" result="blur"/>
      <feColorMatrix in="blur" type="matrix" values="0 0 0 0 0.133 0 0 0 0 0.827 0 0 0 0 0.933 0 0 0 0.36 0"/>
      <feMerge>
        <feMergeNode/>
        <feMergeNode in="SourceGraphic"/>
      </feMerge>
    </filter>
  </defs>
  <rect width="720" height="200" rx="28" fill="#0A0A0F"/>
  <g transform="translate(40 28)">
    <rect width="144" height="144" rx="26" fill="#12121A"/>
    <g transform="translate(16 123) scale(0.020588 -0.020588)" fill="url(#mark-fill)" filter="url(#mark-glow)">
      <path d="M4172 4653 c14 -32 123 -241 238 -458 214 -403 207 -386 192 -442 -7 -27 -25 -64 -41 -83 -45 -58 -201 -178 -285 -220 l-78 -40 -422 0 -421 -1 -244 -275 c-233 -263 -244 -274 -262 -258 -18 16 -15 21 74 116 50 55 156 170 235 256 l142 157 -76 3 c-43 2 -83 1 -89 -2 -7 -2 -82 -82 -167 -178 -85 -95 -162 -179 -171 -186 -15 -13 -16 16 -17 348 0 290 2 360 12 354 7 -4 39 -25 71 -46 31 -21 57 -34 57 -29 0 11 -187 561 -193 567 -2 2 -47 -125 -100 -283 -54 -157 -96 -287 -95 -289 2 -1 33 18 71 42 l67 44 0 -363 0 -362 -43 47 c-23 26 -100 113 -172 193 l-129 145 -83 0 c-46 0 -83 -3 -83 -6 0 -3 89 -102 198 -221 280 -305 268 -290 247 -313 -16 -18 -18 -18 -48 18 -18 20 -68 78 -112 127 -44 50 -140 159 -214 243 l-134 151 -426 3 -426 3 -58 28 c-67 33 -193 125 -255 186 -49 48 -81 110 -82 157 0 21 69 170 205 444 112 228 203 416 200 418 -2 2 -39 -27 -82 -65 -43 -38 -181 -159 -308 -269 -126 -109 -291 -253 -365 -319 -75 -66 -152 -134 -173 -152 l-37 -32 37 -299 36 -298 66 -55 c71 -59 212 -176 433 -357 l137 -112 293 0 294 0 32 -33 c18 -18 32 -36 32 -40 0 -4 -186 -7 -413 -7 l-413 0 -142 -77 c-78 -42 -141 -80 -140 -83 3 -7 107 -98 295 -258 l132 -112 220 0 221 0 20 40 c37 72 42 70 -161 70 l-181 0 -154 122 c-85 67 -154 126 -154 129 0 4 30 19 68 33 l67 26 338 0 337 0 24 -48 c17 -34 57 -76 133 -143 187 -163 432 -389 442 -407 12 -23 25 -510 13 -497 -5 6 -39 59 -77 120 -52 84 -98 140 -194 238 l-125 128 -77 232 c-73 220 -78 232 -101 229 -12 -2 -25 -6 -27 -7 -4 -5 79 -587 87 -600 3 -5 58 -68 122 -140 63 -71 146 -165 183 -208 l67 -78 0 -356 0 -357 98 -100 c53 -56 138 -144 188 -197 l91 -96 294 3 294 3 187 198 188 198 0 361 c0 355 0 361 21 380 12 10 96 103 186 207 l165 187 39 288 c21 158 39 293 39 300 0 7 -14 12 -35 12 -34 0 -34 -1 -55 -72 -116 -401 -106 -379 -275 -558 -58 -60 -116 -136 -160 -207 l-70 -112 -3 67 c-2 37 -1 148 3 247 l7 180 94 110 c52 61 165 197 252 303 l157 192 392 0 393 0 65 -26 c36 -14 65 -29 64 -33 0 -3 -71 -61 -157 -129 l-156 -122 -184 0 c-143 0 -183 -3 -179 -12 3 -7 13 -32 22 -55 l17 -43 222 0 221 0 60 51 c271 230 365 312 365 319 0 5 -60 41 -132 82 l-133 73 -418 5 -417 5 31 38 30 37 293 0 292 0 215 178 c118 97 261 215 316 261 l101 83 11 92 c6 50 23 185 37 300 14 115 22 212 17 216 -291 263 -963 840 -978 840 -4 0 -5 -3 -3 -7z m-3282 -517 c-27 -47 -76 -137 -110 -202 -61 -117 -62 -119 -58 -189 2 -49 11 -85 28 -119 41 -81 232 -245 360 -309 l65 -32 417 -3 417 -3 88 -97 c49 -53 147 -164 218 -247 72 -82 178 -202 238 -267 l107 -118 0 -623 0 -622 -166 -140 c-91 -77 -172 -144 -180 -148 -11 -6 -14 -34 -14 -125 l0 -117 78 -76 c68 -67 168 -137 179 -125 2 2 -5 35 -17 73 -17 58 -30 79 -75 123 -54 53 -55 56 -55 110 l1 55 159 113 159 113 83 -61 c46 -34 118 -84 160 -113 l78 -52 0 -50 c0 -47 -3 -52 -57 -107 -50 -50 -60 -68 -79 -133 -12 -41 -19 -75 -15 -75 26 2 103 58 175 127 l86 82 0 110 0 110 -142 120 c-79 65 -160 134 -181 152 l-39 34 -2 620 -1 620 235 265 c129 145 275 309 324 365 l89 100 417 5 416 5 75 37 c88 44 293 208 331 265 36 55 61 146 55 199 -4 39 -101 234 -199 400 l-23 39 36 -30 c20 -16 131 -120 248 -230 194 -184 211 -203 211 -234 0 -70 -51 -436 -63 -448 -7 -6 -142 -115 -302 -242 l-290 -231 -185 -1 c-298 -1 -338 -5 -390 -37 -43 -26 -130 -123 -305 -337 -44 -53 -107 -130 -140 -170 -163 -196 -190 -231 -214 -274 l-26 -46 -3 -287 c-4 -332 -8 -312 103 -477 l64 -96 -7 -202 -7 -202 -158 -170 -158 -171 -200 0 -201 0 -107 113 c-59 61 -132 139 -164 173 l-57 61 0 206 c0 121 4 208 10 212 14 9 119 171 141 218 17 38 19 68 19 308 0 289 -8 341 -62 408 -167 205 -538 654 -562 679 -17 19 -53 46 -81 60 -50 26 -52 26 -309 30 l-260 4 -295 236 c-163 130 -297 236 -298 237 -2 1 -20 128 -54 382 -6 45 -8 86 -5 92 4 6 107 104 229 218 122 114 228 216 235 225 7 10 17 18 22 18 4 0 -13 -38 -40 -84z M1164 3146 c-62 -62 -42 -160 40 -191 55 -21 106 -8 138 36 l22 29 220 0 221 0 65 -77 c36 -42 134 -153 218 -247 124 -137 152 -174 146 -191 -18 -54 -15 -90 8 -125 45 -66 116 -76 177 -24 78 65 31 204 -68 204 -42 0 -19 -23 -350 353 l-164 187 -238 0 c-232 0 -238 1 -244 21 -10 31 -64 59 -113 59 -37 0 -50 -6 -78 -34z m132 -51 c21 -31 15 -53 -19 -79 -26 -19 -30 -19 -55 -5 -54 30 -32 109 29 109 19 0 34 -8 45 -25z m1086 -612 c31 -28 22 -70 -19 -92 -30 -15 -40 -14 -63 9 -55 55 24 136 82 83z M4143 3161 c-17 -11 -34 -29 -38 -40 -6 -20 -12 -21 -245 -21 l-239 0 -173 -198 c-95 -108 -200 -230 -233 -270 -57 -68 -62 -72 -102 -72 -73 0 -130 -71 -116 -144 7 -35 55 -83 93 -91 93 -20 178 81 137 164 l-15 29 177 199 c97 109 196 222 221 251 l46 52 216 2 216 2 26 -31 c93 -110 257 -13 206 121 -22 59 -116 84 -177 47z m111 -57 c44 -44 -9 -117 -68 -94 -56 21 -37 110 24 110 15 0 36 -7 44 -16z m-1086 -637 c26 -53 -34 -105 -83 -73 -29 19 -34 66 -9 91 26 26 76 16 92 -18z"/>
    </g>
  </g>
  <g font-family="'Plus Jakarta Sans', 'Inter', Arial, sans-serif" font-weight="800">
    <text x="220" y="107" fill="#EEEEF0" font-size="68" letter-spacing="-1">Agents</text>
    <text x="466" y="107" fill="url(#word-accent)" font-size="68" letter-spacing="-1">OX</text>
    <text x="224" y="145" fill="#A0A0B0" font-size="19" font-weight="600" letter-spacing="5">AI SYSTEMS FOR BUSINESS OPERATIONS</text>
  </g>
</svg>
